<?xml version="1.0" encoding="utf-8"?>
<?xml-stylesheet type="text/xsl" href="rss1.xsl"?>
<rss version="2.0" xmlns:atom="http://www.w3.org/2005/Atom" xmlns:content="http://purl.org/rss/1.0/modules/content/" xmlns:dc="http://purl.org/dc/elements/1.1/" xmlns:media="http://search.yahoo.com/mrss/">
<channel>
 <title>Getty</title>
 <link>http://www.gettyimg.com/</link>
 <atom:link href="http://www.gettyimg.com/" rel="self" type="application/rss+xml" />

 
                <item>
                <title><![CDATA[【Singles (lossless)】deleted]]></title>
                <link><![CDATA[https://sharemania.us/threads/deleted.243586/]]></link>
                <description><![CDATA[<article>
<blockquote class="messageText SelectQuoteContainer ugc baseHtml">
deleted
<div class="messageTextEndMarker">&nbsp;</div>
</blockquote>
</article>]]></description>
                <author><![CDATA[rominuchiiis]]></author>
                </item>

                
                <item>
                <title><![CDATA[【SD Live Performances】SDTV - Mariah Carey Shining Through The Rain]]></title>
                <link><![CDATA[https://sharemania.us/threads/mariah-carey-shining-through-the-rain.243585/]]></link>
                <description><![CDATA[<article>
<blockquote class="messageText SelectQuoteContainer ugc baseHtml">
Mariah Carey Shining Through The Rain<br>
<br>
<div class="bbCodeBlock bbCodeCode">
<div class="type">Code:</div>
<pre>Mariah Carey Shining Through The Rain  Mushu DVD.mpg
Format                                   : MPEG-PS
File size                                : 968 MiB
Duration                                 : 41 min 27 s
Overall bit rate mode                    : Variable
Overall bit rate                         : 3 262 kb/s
Frame rate                               : 29.970 FPS
Writing library                          : encoded by TMPGEnc 3.0 XPress Version. 3.0.4.24

Video
ID                                       : 224 (0xE0)
Format                                   : MPEG Video
Format version                           : Version 2
Format profile                           : Main@Main
Format settings                          : CustomMatrix / BVOP
Format settings, BVOP                    : Yes
Format settings, Matrix                  : Custom
Format settings, GOP                     : M=3, N=16
Format settings, picture structure       : Frame
Duration                                 : 41 min 27 s
Bit rate mode                            : Variable
Bit rate                                 : 2 974 kb/s
Maximum bit rate                         : 9 200 kb/s
Width                                    : 704 pixels
Height                                   : 480 pixels
Display aspect ratio                     : 4:3
Frame rate                               : 29.970 (30000/1001) FPS
Standard                                 : NTSC
Color space                              : YUV
Chroma subsampling                       : 4:2:0
Bit depth                                : 8 bits
Scan type                                : Interlaced
Scan order                               : Top Field First
Compression mode                         : Lossy
Bits/(Pixel*Frame)                       : 0.294
Time code of first frame                 : 00:00:00:00
Time code source                         : Group of pictures header
GOP, Open/Closed                         : Closed
Stream size                              : 882 MiB (91%)
Writing library                          : TMPGEnc 3.0 XPress Version. 3.0.4.24
Color primaries                          : BT.601 PAL
Transfer characteristics                 : BT.470 System B/G
Matrix coefficients                      : FCC 73.682

Audio
ID                                       : 189 (0xBD)-128 (0x80)
Format                                   : AC-3
Format/Info                              : Audio Coding 3
Commercial name                          : Dolby Digital
Muxing mode                              : DVD-Video
Duration                                 : 41 min 27 s
Bit rate mode                            : Constant
Bit rate                                 : 224 kb/s
Channel(s)                               : 2 channels
Channel layout                           : L R
Sampling rate                            : 48.0 kHz
Frame rate                               : 31.250 FPS (1536 SPF)
Compression mode                         : Lossy
Stream size                              : 66.4 MiB (7%)
Service kind                             : Complete Main

</pre>
</div>
<div class="bbCodeBlock bbCodeVfcHH HiddenContent">
<div class="attribution type">Hidden Content:</div>
<blockquote>You must reply before you can see the hidden data contained here.</blockquote>
</div>
<div class="messageTextEndMarker">&nbsp;</div>
</blockquote>
</article>]]></description>
                <author><![CDATA[musshu1981]]></author>
                </item>

                </channel></rss>